<?xml version="1.0" encoding="UTF-8"?>
<!DOCTYPE svg PUBLIC "-//W3C//DTD SVG 1.1//EN" "http://www.w3.org/Graphics/SVG/1.1/DTD/svg11.dtd">
<svg width="160mm" height="90mm" viewBox="0 0 16000 9000" version="1.1" xmlns="http://www.w3.org/2000/svg" stroke-width="28.222" stroke-linejoin="round" xml:space="preserve">
 <path fill="rgb(255,255,255)" stroke="none" d="M 8010,0 L 10,8999 10,8999 16009,0 16009,0 8010,8999 Z"/>
 <path fill="none" stroke="rgb(179,179,179)" stroke-linejoin="round" d="M 5835,0 L 1962,7046 1962,7046 9707,2337 9707,2337 5835,7046 Z"/>
 <path fill="none" stroke="rgb(179,179,179)" stroke-linejoin="round" d="M 9706,0 L 1962,7044"/>
 <path fill="none" stroke="rgb(179,179,179)" stroke-linejoin="round" d="M 9706,0 L 1962,6372"/>
 <path fill="none" stroke="rgb(179,179,179)" stroke-linejoin="round" d="M 9706,0 L 1962,5699"/>
 <path fill="none" stroke="rgb(179,179,179)" stroke-linejoin="round" d="M 9706,0 L 1962,5026"/>
 <path fill="none" stroke="rgb(179,179,179)" stroke-linejoin="round" d="M 9706,0 L 1962,4354"/>
 <path fill="none" stroke="rgb(179,179,179)" stroke-linejoin="round" d="M 9706,0 L 1962,3681"/>
 <path fill="none" stroke="rgb(179,179,179)" stroke-linejoin="round" d="M 9706,0 L 1962,3008"/>
 <path fill="none" stroke="rgb(179,179,179)" stroke-linejoin="round" d="M 9706,0 L 1962,2335"/>
 <path fill="none" stroke="rgb(179,179,179)" stroke-linejoin="round" d="M 1962,0 L 1962,7194"/>
 <path fill="none" stroke="rgb(179,179,179)" stroke-linejoin="round" d="M 1962,0 L 1962,7194"/>
 <path fill="none" stroke="rgb(179,179,179)" stroke-linejoin="round" d="M 2040,0 L 2040,7194"/>
 <path fill="none" stroke="rgb(179,179,179)" stroke-linejoin="round" d="M 2040,0 L 2040,7194"/>
 <path fill="none" stroke="rgb(179,179,179)" stroke-linejoin="round" d="M 2118,0 L 2118,7194"/>
 <path fill="none" stroke="rgb(179,179,179)" stroke-linejoin="round" d="M 2118,0 L 2118,7194"/>
 <path fill="none" stroke="rgb(179,179,179)" stroke-linejoin="round" d="M 2196,0 L 2196,7194"/>
 <path fill="none" stroke="rgb(179,179,179)" stroke-linejoin="round" d="M 2196,0 L 2196,7194"/>
 <path fill="none" stroke="rgb(179,179,179)" stroke-linejoin="round" d="M 2274,0 L 2274,7194"/>
 <path fill="none" stroke="rgb(179,179,179)" stroke-linejoin="round" d="M 2274,0 L 2274,7194"/>
 <path fill="none" stroke="rgb(179,179,179)" stroke-linejoin="round" d="M 2353,0 L 2353,7194"/>
 <path fill="none" stroke="rgb(179,179,179)" stroke-linejoin="round" d="M 2353,0 L 2353,7194"/>
 <path fill="none" stroke="rgb(179,179,179)" stroke-linejoin="round" d="M 2431,0 L 2431,7194"/>
 <path fill="none" stroke="rgb(179,179,179)" stroke-linejoin="round" d="M 2431,0 L 2431,7194"/>
 <path fill="none" stroke="rgb(179,179,179)" stroke-linejoin="round" d="M 2509,0 L 2509,7194"/>
 <path fill="none" stroke="rgb(179,179,179)" stroke-linejoin="round" d="M 2509,0 L 2509,7194"/>
 <path fill="none" stroke="rgb(179,179,179)" stroke-linejoin="round" d="M 2587,0 L 2587,7194"/>
 <path fill="none" stroke="rgb(179,179,179)" stroke-linejoin="round" d="M 2587,0 L 2587,7194"/>
 <path fill="none" stroke="rgb(179,179,179)" stroke-linejoin="round" d="M 2666,0 L 2666,7194"/>
 <path fill="none" stroke="rgb(179,179,179)" stroke-linejoin="round" d="M 2666,0 L 2666,7194"/>
 <path fill="none" stroke="rgb(179,179,179)" stroke-linejoin="round" d="M 2744,0 L 2744,7194"/>
 <path fill="none" stroke="rgb(179,179,179)" stroke-linejoin="round" d="M 2744,0 L 2744,7194"/>
 <path fill="none" stroke="rgb(179,179,179)" stroke-linejoin="round" d="M 2822,0 L 2822,7194"/>
 <path fill="none" stroke="rgb(179,179,179)" stroke-linejoin="round" d="M 2822,0 L 2822,7194"/>
 <path fill="none" stroke="rgb(179,179,179)" stroke-linejoin="round" d="M 2900,0 L 2900,7194"/>
 <path fill="none" stroke="rgb(179,179,179)" stroke-linejoin="round" d="M 2900,0 L 2900,7194"/>
 <path fill="none" stroke="rgb(179,179,179)" stroke-linejoin="round" d="M 2979,0 L 2979,7194"/>
 <path fill="none" stroke="rgb(179,179,179)" stroke-linejoin="round" d="M 2979,0 L 2979,7194"/>
 <path fill="none" stroke="rgb(179,179,179)" stroke-linejoin="round" d="M 3057,0 L 3057,7194"/>
 <path fill="none" stroke="rgb(179,179,179)" stroke-linejoin="round" d="M 3057,0 L 3057,7194"/>
 <path fill="none" stroke="rgb(179,179,179)" stroke-linejoin="round" d="M 3135,0 L 3135,7194"/>
 <path fill="none" stroke="rgb(179,179,179)" stroke-linejoin="round" d="M 3135,0 L 3135,7194"/>
 <path fill="none" stroke="rgb(179,179,179)" stroke-linejoin="round" d="M 3213,0 L 3213,7194"/>
 <path fill="none" stroke="rgb(179,179,179)" stroke-linejoin="round" d="M 3213,0 L 3213,7194"/>
 <path fill="none" stroke="rgb(179,179,179)" stroke-linejoin="round" d="M 3292,0 L 3292,7194"/>
 <path fill="none" stroke="rgb(179,179,179)" stroke-linejoin="round" d="M 3292,0 L 3292,7194"/>
 <path fill="none" stroke="rgb(179,179,179)" stroke-linejoin="round" d="M 3370,0 L 3370,7194"/>
 <path fill="none" stroke="rgb(179,179,179)" stroke-linejoin="round" d="M 3370,0 L 3370,7194"/>
 <path fill="none" stroke="rgb(179,179,179)" stroke-linejoin="round" d="M 3448,0 L 3448,7194"/>
 <path fill="none" stroke="rgb(179,179,179)" stroke-linejoin="round" d="M 3448,0 L 3448,7194"/>
 <path fill="none" stroke="rgb(179,179,179)" stroke-linejoin="round" d="M 3526,0 L 3526,7194"/>
 <path fill="none" stroke="rgb(179,179,179)" stroke-linejoin="round" d="M 3526,0 L 3526,7194"/>
 <path fill="none" stroke="rgb(179,179,179)" stroke-linejoin="round" d="M 3605,0 L 3605,7194"/>
 <path fill="none" stroke="rgb(179,179,179)" stroke-linejoin="round" d="M 3605,0 L 3605,7194"/>
 <path fill="none" stroke="rgb(179,179,179)" stroke-linejoin="round" d="M 3683,0 L 3683,7194"/>
 <path fill="none" stroke="rgb(179,179,179)" stroke-linejoin="round" d="M 3683,0 L 3683,7194"/>
 <path fill="none" stroke="rgb(179,179,179)" stroke-linejoin="round" d="M 3761,0 L 3761,7194"/>
 <path fill="none" stroke="rgb(179,179,179)" stroke-linejoin="round" d="M 3761,0 L 3761,7194"/>
 <path fill="none" stroke="rgb(179,179,179)" stroke-linejoin="round" d="M 3839,0 L 3839,7194"/>
 <path fill="none" stroke="rgb(179,179,179)" stroke-linejoin="round" d="M 3839,0 L 3839,7194"/>
 <path fill="none" stroke="rgb(179,179,179)" stroke-linejoin="round" d="M 3918,0 L 3918,7194"/>
 <path fill="none" stroke="rgb(179,179,179)" stroke-linejoin="round" d="M 3918,0 L 3918,7194"/>
 <path fill="none" stroke="rgb(179,179,179)" stroke-linejoin="round" d="M 3996,0 L 3996,7194"/>
 <path fill="none" stroke="rgb(179,179,179)" stroke-linejoin="round" d="M 3996,0 L 3996,7194"/>
 <path fill="none" stroke="rgb(179,179,179)" stroke-linejoin="round" d="M 4074,0 L 4074,7194"/>
 <path fill="none" stroke="rgb(179,179,179)" stroke-linejoin="round" d="M 4074,0 L 4074,7194"/>
 <path fill="none" stroke="rgb(179,179,179)" stroke-linejoin="round" d="M 4152,0 L 4152,7194"/>
 <path fill="none" stroke="rgb(179,179,179)" stroke-linejoin="round" d="M 4152,0 L 4152,7194"/>
 <path fill="none" stroke="rgb(179,179,179)" stroke-linejoin="round" d="M 4231,0 L 4231,7194"/>
 <path fill="none" stroke="rgb(179,179,179)" stroke-linejoin="round" d="M 4231,0 L 4231,7194"/>
 <path fill="none" stroke="rgb(179,179,179)" stroke-linejoin="round" d="M 4309,0 L 4309,7194"/>
 <path fill="none" stroke="rgb(179,179,179)" stroke-linejoin="round" d="M 4309,0 L 4309,7194"/>
 <path fill="none" stroke="rgb(179,179,179)" stroke-linejoin="round" d="M 4387,0 L 4387,7194"/>
 <path fill="none" stroke="rgb(179,179,179)" stroke-linejoin="round" d="M 4387,0 L 4387,7194"/>
 <path fill="none" stroke="rgb(179,179,179)" stroke-linejoin="round" d="M 4465,0 L 4465,7194"/>
 <path fill="none" stroke="rgb(179,179,179)" stroke-linejoin="round" d="M 4465,0 L 4465,7194"/>
 <path fill="none" stroke="rgb(179,179,179)" stroke-linejoin="round" d="M 4544,0 L 4544,7194"/>
 <path fill="none" stroke="rgb(179,179,179)" stroke-linejoin="round" d="M 4544,0 L 4544,7194"/>
 <path fill="none" stroke="rgb(179,179,179)" stroke-linejoin="round" d="M 4622,0 L 4622,7194"/>
 <path fill="none" stroke="rgb(179,179,179)" stroke-linejoin="round" d="M 4622,0 L 4622,7194"/>
 <path fill="none" stroke="rgb(179,179,179)" stroke-linejoin="round" d="M 4700,0 L 4700,7194"/>
 <path fill="none" stroke="rgb(179,179,179)" stroke-linejoin="round" d="M 4700,0 L 4700,7194"/>
 <path fill="none" stroke="rgb(179,179,179)" stroke-linejoin="round" d="M 4778,0 L 4778,7194"/>
 <path fill="none" stroke="rgb(179,179,179)" stroke-linejoin="round" d="M 4778,0 L 4778,7194"/>
 <path fill="none" stroke="rgb(179,179,179)" stroke-linejoin="round" d="M 4856,0 L 4856,7194"/>
 <path fill="none" stroke="rgb(179,179,179)" stroke-linejoin="round" d="M 4856,0 L 4856,7194"/>
 <path fill="none" stroke="rgb(179,179,179)" stroke-linejoin="round" d="M 4935,0 L 4935,7194"/>
 <path fill="none" stroke="rgb(179,179,179)" stroke-linejoin="round" d="M 4935,0 L 4935,7194"/>
 <path fill="none" stroke="rgb(179,179,179)" stroke-linejoin="round" d="M 5013,0 L 5013,7194"/>
 <path fill="none" stroke="rgb(179,179,179)" stroke-linejoin="round" d="M 5013,0 L 5013,7194"/>
 <path fill="none" stroke="rgb(179,179,179)" stroke-linejoin="round" d="M 5091,0 L 5091,7194"/>
 <path fill="none" stroke="rgb(179,179,179)" stroke-linejoin="round" d="M 5091,0 L 5091,7194"/>
 <path fill="none" stroke="rgb(179,179,179)" stroke-linejoin="round" d="M 5169,0 L 5169,7194"/>
 <path fill="none" stroke="rgb(179,179,179)" stroke-linejoin="round" d="M 5169,0 L 5169,7194"/>
 <path fill="none" stroke="rgb(179,179,179)" stroke-linejoin="round" d="M 5248,0 L 5248,7194"/>
 <path fill="none" stroke="rgb(179,179,179)" stroke-linejoin="round" d="M 5248,0 L 5248,7194"/>
 <path fill="none" stroke="rgb(179,179,179)" stroke-linejoin="round" d="M 5326,0 L 5326,7194"/>
 <path fill="none" stroke="rgb(179,179,179)" stroke-linejoin="round" d="M 5326,0 L 5326,7194"/>
 <path fill="none" stroke="rgb(179,179,179)" stroke-linejoin="round" d="M 5404,0 L 5404,7194"/>
 <path fill="none" stroke="rgb(179,179,179)" stroke-linejoin="round" d="M 5404,0 L 5404,7194"/>
 <path fill="none" stroke="rgb(179,179,179)" stroke-linejoin="round" d="M 5482,0 L 5482,7194"/>
 <path fill="none" stroke="rgb(179,179,179)" stroke-linejoin="round" d="M 5482,0 L 5482,7194"/>
 <path fill="none" stroke="rgb(179,179,179)" stroke-linejoin="round" d="M 5561,0 L 5561,7194"/>
 <path fill="none" stroke="rgb(179,179,179)" stroke-linejoin="round" d="M 5561,0 L 5561,7194"/>
 <path fill="none" stroke="rgb(179,179,179)" stroke-linejoin="round" d="M 5639,0 L 5639,7194"/>
 <path fill="none" stroke="rgb(179,179,179)" stroke-linejoin="round" d="M 5639,0 L 5639,7194"/>
 <path fill="none" stroke="rgb(179,179,179)" stroke-linejoin="round" d="M 5717,0 L 5717,7194"/>
 <path fill="none" stroke="rgb(179,179,179)" stroke-linejoin="round" d="M 5717,0 L 5717,7194"/>
 <path fill="none" stroke="rgb(179,179,179)" stroke-linejoin="round" d="M 5795,0 L 5795,7194"/>
 <path fill="none" stroke="rgb(179,179,179)" stroke-linejoin="round" d="M 5795,0 L 5795,7194"/>
 <path fill="none" stroke="rgb(179,179,179)" stroke-linejoin="round" d="M 5874,0 L 5874,7194"/>
 <path fill="none" stroke="rgb(179,179,179)" stroke-linejoin="round" d="M 5874,0 L 5874,7194"/>
 <path fill="none" stroke="rgb(179,179,179)" stroke-linejoin="round" d="M 5952,0 L 5952,7194"/>
 <path fill="none" stroke="rgb(179,179,179)" stroke-linejoin="round" d="M 5952,0 L 5952,7194"/>
 <path fill="none" stroke="rgb(179,179,179)" stroke-linejoin="round" d="M 6030,0 L 6030,7194"/>
 <path fill="none" stroke="rgb(179,179,179)" stroke-linejoin="round" d="M 6030,0 L 6030,7194"/>
 <path fill="none" stroke="rgb(179,179,179)" stroke-linejoin="round" d="M 6108,0 L 6108,7194"/>
 <path fill="none" stroke="rgb(179,179,179)" stroke-linejoin="round" d="M 6108,0 L 6108,7194"/>
 <path fill="none" stroke="rgb(179,179,179)" stroke-linejoin="round" d="M 6187,0 L 6187,7194"/>
 <path fill="none" stroke="rgb(179,179,179)" stroke-linejoin="round" d="M 6187,0 L 6187,7194"/>
 <path fill="none" stroke="rgb(179,179,179)" stroke-linejoin="round" d="M 6265,0 L 6265,7194"/>
 <path fill="none" stroke="rgb(179,179,179)" stroke-linejoin="round" d="M 6265,0 L 6265,7194"/>
 <path fill="none" stroke="rgb(179,179,179)" stroke-linejoin="round" d="M 6343,0 L 6343,7194"/>
 <path fill="none" stroke="rgb(179,179,179)" stroke-linejoin="round" d="M 6343,0 L 6343,7194"/>
 <path fill="none" stroke="rgb(179,179,179)" stroke-linejoin="round" d="M 6421,0 L 6421,7194"/>
 <path fill="none" stroke="rgb(179,179,179)" stroke-linejoin="round" d="M 6421,0 L 6421,7194"/>
 <path fill="none" stroke="rgb(179,179,179)" stroke-linejoin="round" d="M 6500,0 L 6500,7194"/>
 <path fill="none" stroke="rgb(179,179,179)" stroke-linejoin="round" d="M 6500,0 L 6500,7194"/>
 <path fill="none" stroke="rgb(179,179,179)" stroke-linejoin="round" d="M 6578,0 L 6578,7194"/>
 <path fill="none" stroke="rgb(179,179,179)" stroke-linejoin="round" d="M 6578,0 L 6578,7194"/>
 <path fill="none" stroke="rgb(179,179,179)" stroke-linejoin="round" d="M 6656,0 L 6656,7194"/>
 <path fill="none" stroke="rgb(179,179,179)" stroke-linejoin="round" d="M 6656,0 L 6656,7194"/>
 <path fill="none" stroke="rgb(179,179,179)" stroke-linejoin="round" d="M 6734,0 L 6734,7194"/>
 <path fill="none" stroke="rgb(179,179,179)" stroke-linejoin="round" d="M 6734,0 L 6734,7194"/>
 <path fill="none" stroke="rgb(179,179,179)" stroke-linejoin="round" d="M 6813,0 L 6813,7194"/>
 <path fill="none" stroke="rgb(179,179,179)" stroke-linejoin="round" d="M 6813,0 L 6813,7194"/>
 <path fill="none" stroke="rgb(179,179,179)" stroke-linejoin="round" d="M 6891,0 L 6891,7194"/>
 <path fill="none" stroke="rgb(179,179,179)" stroke-linejoin="round" d="M 6891,0 L 6891,7194"/>
 <path fill="none" stroke="rgb(179,179,179)" stroke-linejoin="round" d="M 6969,0 L 6969,7194"/>
 <path fill="none" stroke="rgb(179,179,179)" stroke-linejoin="round" d="M 6969,0 L 6969,7194"/>
 <path fill="none" stroke="rgb(179,179,179)" stroke-linejoin="round" d="M 7047,0 L 7047,7194"/>
 <path fill="none" stroke="rgb(179,179,179)" stroke-linejoin="round" d="M 7047,0 L 7047,7194"/>
 <path fill="none" stroke="rgb(179,179,179)" stroke-linejoin="round" d="M 7125,0 L 7125,7194"/>
 <path fill="none" stroke="rgb(179,179,179)" stroke-linejoin="round" d="M 7125,0 L 7125,7194"/>
 <path fill="none" stroke="rgb(179,179,179)" stroke-linejoin="round" d="M 7204,0 L 7204,7194"/>
 <path fill="none" stroke="rgb(179,179,179)" stroke-linejoin="round" d="M 7204,0 L 7204,7194"/>
 <path fill="none" stroke="rgb(179,179,179)" stroke-linejoin="round" d="M 7282,0 L 7282,7194"/>
 <path fill="none" stroke="rgb(179,179,179)" stroke-linejoin="round" d="M 7282,0 L 7282,7194"/>
 <path fill="none" stroke="rgb(179,179,179)" stroke-linejoin="round" d="M 7360,0 L 7360,7194"/>
 <path fill="none" stroke="rgb(179,179,179)" stroke-linejoin="round" d="M 7360,0 L 7360,7194"/>
 <path fill="none" stroke="rgb(179,179,179)" stroke-linejoin="round" d="M 7438,0 L 7438,7194"/>
 <path fill="none" stroke="rgb(179,179,179)" stroke-linejoin="round" d="M 7438,0 L 7438,7194"/>
 <path fill="none" stroke="rgb(179,179,179)" stroke-linejoin="round" d="M 7517,0 L 7517,7194"/>
 <path fill="none" stroke="rgb(179,179,179)" stroke-linejoin="round" d="M 7517,0 L 7517,7194"/>
 <path fill="none" stroke="rgb(179,179,179)" stroke-linejoin="round" d="M 7595,0 L 7595,7194"/>
 <path fill="none" stroke="rgb(179,179,179)" stroke-linejoin="round" d="M 7595,0 L 7595,7194"/>
 <path fill="none" stroke="rgb(179,179,179)" stroke-linejoin="round" d="M 7673,0 L 7673,7194"/>
 <path fill="none" stroke="rgb(179,179,179)" stroke-linejoin="round" d="M 7673,0 L 7673,7194"/>
 <path fill="none" stroke="rgb(179,179,179)" stroke-linejoin="round" d="M 7751,0 L 7751,7194"/>
 <path fill="none" stroke="rgb(179,179,179)" stroke-linejoin="round" d="M 7751,0 L 7751,7194"/>
 <path fill="none" stroke="rgb(179,179,179)" stroke-linejoin="round" d="M 7830,0 L 7830,7194"/>
 <path fill="none" stroke="rgb(179,179,179)" stroke-linejoin="round" d="M 7830,0 L 7830,7194"/>
 <path fill="none" stroke="rgb(179,179,179)" stroke-linejoin="round" d="M 7908,0 L 7908,7194"/>
 <path fill="none" stroke="rgb(179,179,179)" stroke-linejoin="round" d="M 7908,0 L 7908,7194"/>
 <path fill="none" stroke="rgb(179,179,179)" stroke-linejoin="round" d="M 7986,0 L 7986,7194"/>
 <path fill="none" stroke="rgb(179,179,179)" stroke-linejoin="round" d="M 7986,0 L 7986,7194"/>
 <path fill="none" stroke="rgb(179,179,179)" stroke-linejoin="round" d="M 8063,0 L 8063,7194"/>
 <path fill="none" stroke="rgb(179,179,179)" stroke-linejoin="round" d="M 8063,0 L 8063,7194"/>
 <path fill="none" stroke="rgb(179,179,179)" stroke-linejoin="round" d="M 8142,0 L 8142,7194"/>
 <path fill="none" stroke="rgb(179,179,179)" stroke-linejoin="round" d="M 8142,0 L 8142,7194"/>
 <path fill="none" stroke="rgb(179,179,179)" stroke-linejoin="round" d="M 8220,0 L 8220,7194"/>
 <path fill="none" stroke="rgb(179,179,179)" stroke-linejoin="round" d="M 8220,0 L 8220,7194"/>
 <path fill="none" stroke="rgb(179,179,179)" stroke-linejoin="round" d="M 8298,0 L 8298,7194"/>
 <path fill="none" stroke="rgb(179,179,179)" stroke-linejoin="round" d="M 8298,0 L 8298,7194"/>
 <path fill="none" stroke="rgb(179,179,179)" stroke-linejoin="round" d="M 8376,0 L 8376,7194"/>
 <path fill="none" stroke="rgb(179,179,179)" stroke-linejoin="round" d="M 8376,0 L 8376,7194"/>
 <path fill="none" stroke="rgb(179,179,179)" stroke-linejoin="round" d="M 8455,0 L 8455,7194"/>
 <path fill="none" stroke="rgb(179,179,179)" stroke-linejoin="round" d="M 8455,0 L 8455,7194"/>
 <path fill="none" stroke="rgb(179,179,179)" stroke-linejoin="round" d="M 8533,0 L 8533,7194"/>
 <path fill="none" stroke="rgb(179,179,179)" stroke-linejoin="round" d="M 8533,0 L 8533,7194"/>
 <path fill="none" stroke="rgb(179,179,179)" stroke-linejoin="round" d="M 8611,0 L 8611,7194"/>
 <path fill="none" stroke="rgb(179,179,179)" stroke-linejoin="round" d="M 8611,0 L 8611,7194"/>
 <path fill="none" stroke="rgb(179,179,179)" stroke-linejoin="round" d="M 8689,0 L 8689,7194"/>
 <path fill="none" stroke="rgb(179,179,179)" stroke-linejoin="round" d="M 8689,0 L 8689,7194"/>
 <path fill="none" stroke="rgb(179,179,179)" stroke-linejoin="round" d="M 8768,0 L 8768,7194"/>
 <path fill="none" stroke="rgb(179,179,179)" stroke-linejoin="round" d="M 8768,0 L 8768,7194"/>
 <path fill="none" stroke="rgb(179,179,179)" stroke-linejoin="round" d="M 8846,0 L 8846,7194"/>
 <path fill="none" stroke="rgb(179,179,179)" stroke-linejoin="round" d="M 8846,0 L 8846,7194"/>
 <path fill="none" stroke="rgb(179,179,179)" stroke-linejoin="round" d="M 8924,0 L 8924,7194"/>
 <path fill="none" stroke="rgb(179,179,179)" stroke-linejoin="round" d="M 8924,0 L 8924,7194"/>
 <path fill="none" stroke="rgb(179,179,179)" stroke-linejoin="round" d="M 9002,0 L 9002,7194"/>
 <path fill="none" stroke="rgb(179,179,179)" stroke-linejoin="round" d="M 9002,0 L 9002,7194"/>
 <path fill="none" stroke="rgb(179,179,179)" stroke-linejoin="round" d="M 9081,0 L 9081,7194"/>
 <path fill="none" stroke="rgb(179,179,179)" stroke-linejoin="round" d="M 9081,0 L 9081,7194"/>
 <path fill="none" stroke="rgb(179,179,179)" stroke-linejoin="round" d="M 9159,0 L 9159,7194"/>
 <path fill="none" stroke="rgb(179,179,179)" stroke-linejoin="round" d="M 9159,0 L 9159,7194"/>
 <path fill="none" stroke="rgb(179,179,179)" stroke-linejoin="round" d="M 9237,0 L 9237,7194"/>
 <path fill="none" stroke="rgb(179,179,179)" stroke-linejoin="round" d="M 9237,0 L 9237,7194"/>
 <path fill="none" stroke="rgb(179,179,179)" stroke-linejoin="round" d="M 9315,0 L 9315,7194"/>
 <path fill="none" stroke="rgb(179,179,179)" stroke-linejoin="round" d="M 9315,0 L 9315,7194"/>
 <path fill="none" stroke="rgb(179,179,179)" stroke-linejoin="round" d="M 9394,0 L 9394,7194"/>
 <path fill="none" stroke="rgb(179,179,179)" stroke-linejoin="round" d="M 9394,0 L 9394,7194"/>
 <path fill="none" stroke="rgb(179,179,179)" stroke-linejoin="round" d="M 9472,0 L 9472,7194"/>
 <path fill="none" stroke="rgb(179,179,179)" stroke-linejoin="round" d="M 9472,0 L 9472,7194"/>
 <path fill="none" stroke="rgb(179,179,179)" stroke-linejoin="round" d="M 9550,0 L 9550,7194"/>
 <path fill="none" stroke="rgb(179,179,179)" stroke-linejoin="round" d="M 9550,0 L 9550,7194"/>
 <path fill="none" stroke="rgb(179,179,179)" stroke-linejoin="round" d="M 9628,0 L 9628,7194"/>
 <path fill="none" stroke="rgb(179,179,179)" stroke-linejoin="round" d="M 9628,0 L 9628,7194"/>
 <path fill="none" stroke="rgb(179,179,179)" stroke-linejoin="round" d="M 9706,0 L 9706,7194"/>
 <path fill="none" stroke="rgb(179,179,179)" stroke-linejoin="round" d="M 9706,0 L 9706,7194"/>
 <path fill="none" stroke="rgb(179,179,179)" stroke-linejoin="round" d="M 1962,0 L 9706,7044"/>
 <path fill="none" stroke="rgb(179,179,179)" stroke-linejoin="round" d="M 1812,0 L 1962,7044"/>
 <path fill="none" stroke="rgb(179,179,179)" stroke-linejoin="round" d="M 1812,0 L 1962,7044"/>
 <path fill="none" stroke="rgb(179,179,179)" stroke-linejoin="round" d="M 1812,0 L 1962,6372"/>
 <path fill="none" stroke="rgb(179,179,179)" stroke-linejoin="round" d="M 1812,0 L 1962,6372"/>
 <path fill="none" stroke="rgb(179,179,179)" stroke-linejoin="round" d="M 1812,0 L 1962,5699"/>
 <path fill="none" stroke="rgb(179,179,179)" stroke-linejoin="round" d="M 1812,0 L 1962,5699"/>
 <path fill="none" stroke="rgb(179,179,179)" stroke-linejoin="round" d="M 1812,0 L 1962,5026"/>
 <path fill="none" stroke="rgb(179,179,179)" stroke-linejoin="round" d="M 1812,0 L 1962,5026"/>
 <path fill="none" stroke="rgb(179,179,179)" stroke-linejoin="round" d="M 1812,0 L 1962,4354"/>
 <path fill="none" stroke="rgb(179,179,179)" stroke-linejoin="round" d="M 1812,0 L 1962,4354"/>
 <path fill="none" stroke="rgb(179,179,179)" stroke-linejoin="round" d="M 1812,0 L 1962,3681"/>
 <path fill="none" stroke="rgb(179,179,179)" stroke-linejoin="round" d="M 1812,0 L 1962,3681"/>
 <path fill="none" stroke="rgb(179,179,179)" stroke-linejoin="round" d="M 1812,0 L 1962,3008"/>
 <path fill="none" stroke="rgb(179,179,179)" stroke-linejoin="round" d="M 1812,0 L 1962,3008"/>
 <path fill="none" stroke="rgb(179,179,179)" stroke-linejoin="round" d="M 1812,0 L 1962,2335"/>
 <path fill="none" stroke="rgb(179,179,179)" stroke-linejoin="round" d="M 1812,0 L 1962,2335"/>
 <path fill="none" stroke="rgb(179,179,179)" stroke-linejoin="round" d="M 1962,0 L 1962,7044"/>
 <path fill="none" stroke="rgb(0,0,0)" stroke-width="100" stroke-linejoin="round" d="M 1962,0 L 2040,3345 2118,4186 2196,4186 2274,4521 2353,4521 2431,4018 2509,3849 2587,4186 2666,4186 2744,3681 2822,4018 2900,3849 2979,4186 3057,4521 3135,3849 3213,4186 3292,3849 3370,4018 3448,4354 3526,4186 3605,4521 3683,4018 3761,4186 3839,4521 3918,4521 3996,3849 4074,4186 4152,4354 4231,4018 4309,3681 4387,3681 4465,4354 4544,4354 4622,3849 4700,3849 4778,4354 4856,4354 4935,4018 5013,4018 5091,4354 5169,4186 5248,4186 5326,4018 5404,4521 5482,4186 5561,4354 5639,4186 5717,3849 5795,4354 5874,4018 5952,4354 6030,4186 6108,4018 6187,4521 6265,4354 6343,4186 6421,4186 6500,3849 6578,3849 6656,4186 6734,4354 6813,4186 6891,4018 6969,4186 7047,4354 7126,4018 7204,3681 7282,3849 7360,4186 7438,4018 7517,4186 7595,4018 7673,4521 7751,4018 7830,4354 7908,4018 7986,3849 8063,3681 8142,3849 8220,4354 8298,4018 8376,4186 8455,4018 8533,4186 8611,3849 8689,3849 8768,4186 8846,3849 8924,4018 9002,4354 9081,4018 9159,4354 9237,4186 9315,3849 9394,4186 9472,4186 9550,4018 9628,4354 9706,4018"/>
 <text class="TextShape" transform="translate(1914,7651) rotate(-44.9) translate(-1914,-7651)"><tspan class="TextParagraph" font-family="Liberation Sans, sans-serif" font-size="353px" font-weight="400"><tspan class="TextPosition" x="1914" y="7651"><tspan fill="rgb(0,0,0)" stroke="none">1</tspan></tspan></tspan></text>
 <text class="TextShape" transform="translate(2461,7651) rotate(-44.9) translate(-2461,-7651)"><tspan class="TextParagraph" font-family="Liberation Sans, sans-serif" font-size="353px" font-weight="400"><tspan class="TextPosition" x="2461" y="7651"><tspan fill="rgb(0,0,0)" stroke="none">8</tspan></tspan></tspan></text>
 <text class="TextShape" transform="translate(2878,7781) rotate(-44.9) translate(-2878,-7781)"><tspan class="TextParagraph" font-family="Liberation Sans, sans-serif" font-size="353px" font-weight="400"><tspan class="TextPosition" x="2878" y="7781"><tspan fill="rgb(0,0,0)" stroke="none">15</tspan></tspan></tspan></text>
 <text class="TextShape" transform="translate(3426,7781) rotate(-44.9) translate(-3426,-7781)"><tspan class="TextParagraph" font-family="Liberation Sans, sans-serif" font-size="353px" font-weight="400"><tspan class="TextPosition" x="3426" y="7781"><tspan fill="rgb(0,0,0)" stroke="none">22</tspan></tspan></tspan></text>
 <text class="TextShape" transform="translate(3973,7781) rotate(-44.9) translate(-3973,-7781)"><tspan class="TextParagraph" font-family="Liberation Sans, sans-serif" font-size="353px" font-weight="400"><tspan class="TextPosition" x="3973" y="7781"><tspan fill="rgb(0,0,0)" stroke="none">29</tspan></tspan></tspan></text>
 <text class="TextShape" transform="translate(4521,7781) rotate(-44.9) translate(-4521,-7781)"><tspan class="TextParagraph" font-family="Liberation Sans, sans-serif" font-size="353px" font-weight="400"><tspan class="TextPosition" x="4521" y="7781"><tspan fill="rgb(0,0,0)" stroke="none">36</tspan></tspan></tspan></text>
 <text class="TextShape" transform="translate(5069,7781) rotate(-44.9) translate(-5069,-7781)"><tspan class="TextParagraph" font-family="Liberation Sans, sans-serif" font-size="353px" font-weight="400"><tspan class="TextPosition" x="5069" y="7781"><tspan fill="rgb(0,0,0)" stroke="none">43</tspan></tspan></tspan></text>
 <text class="TextShape" transform="translate(5616,7781) rotate(-44.9) translate(-5616,-7781)"><tspan class="TextParagraph" font-family="Liberation Sans, sans-serif" font-size="353px" font-weight="400"><tspan class="TextPosition" x="5616" y="7781"><tspan fill="rgb(0,0,0)" stroke="none">50</tspan></tspan></tspan></text>
 <text class="TextShape" transform="translate(6164,7781) rotate(-44.9) translate(-6164,-7781)"><tspan class="TextParagraph" font-family="Liberation Sans, sans-serif" font-size="353px" font-weight="400"><tspan class="TextPosition" x="6164" y="7781"><tspan fill="rgb(0,0,0)" stroke="none">57</tspan></tspan></tspan></text>
 <text class="TextShape" transform="translate(6712,7781) rotate(-44.9) translate(-6712,-7781)"><tspan class="TextParagraph" font-family="Liberation Sans, sans-serif" font-size="353px" font-weight="400"><tspan class="TextPosition" x="6712" y="7781"><tspan fill="rgb(0,0,0)" stroke="none">64</tspan></tspan></tspan></text>
 <text class="TextShape" transform="translate(7259,7781) rotate(-44.9) translate(-7259,-7781)"><tspan class="TextParagraph" font-family="Liberation Sans, sans-serif" font-size="353px" font-weight="400"><tspan class="TextPosition" x="7259" y="7781"><tspan fill="rgb(0,0,0)" stroke="none">71</tspan></tspan></tspan></text>
 <text class="TextShape" transform="translate(7807,7781) rotate(-44.9) translate(-7807,-7781)"><tspan class="TextParagraph" font-family="Liberation Sans, sans-serif" font-size="353px" font-weight="400"><tspan class="TextPosition" x="7807" y="7781"><tspan fill="rgb(0,0,0)" stroke="none">78</tspan></tspan></tspan></text>
 <text class="TextShape" transform="translate(8355,7781) rotate(-44.9) translate(-8355,-7781)"><tspan class="TextParagraph" font-family="Liberation Sans, sans-serif" font-size="353px" font-weight="400"><tspan class="TextPosition" x="8355" y="7781"><tspan fill="rgb(0,0,0)" stroke="none">85</tspan></tspan></tspan></text>
 <text class="TextShape" transform="translate(8903,7781) rotate(-44.9) translate(-8903,-7781)"><tspan class="TextParagraph" font-family="Liberation Sans, sans-serif" font-size="353px" font-weight="400"><tspan class="TextPosition" x="8903" y="7781"><tspan fill="rgb(0,0,0)" stroke="none">92</tspan></tspan></tspan></text>
 <text class="TextShape" transform="translate(9450,7781) rotate(-44.9) translate(-9450,-7781)"><tspan class="TextParagraph" font-family="Liberation Sans, sans-serif" font-size="353px" font-weight="400"><tspan class="TextPosition" x="9450" y="7781"><tspan fill="rgb(0,0,0)" stroke="none">99</tspan></tspan></tspan></text>
 <text class="TextShape"><tspan class="TextParagraph" font-family="Liberation Sans, sans-serif" font-size="353px" font-weight="400"><tspan class="TextPosition" x="1342" y="7165"><tspan fill="rgb(0,0,0)" stroke="none">82</tspan></tspan></tspan></text>
 <text class="TextShape"><tspan class="TextParagraph" font-family="Liberation Sans, sans-serif" font-size="353px" font-weight="400"><tspan class="TextPosition" x="1342" y="6493"><tspan fill="rgb(0,0,0)" stroke="none">84</tspan></tspan></tspan></text>
 <text class="TextShape"><tspan class="TextParagraph" font-family="Liberation Sans, sans-serif" font-size="353px" font-weight="400"><tspan class="TextPosition" x="1342" y="5820"><tspan fill="rgb(0,0,0)" stroke="none">86</tspan></tspan></tspan></text>
 <text class="TextShape"><tspan class="TextParagraph" font-family="Liberation Sans, sans-serif" font-size="353px" font-weight="400"><tspan class="TextPosition" x="1342" y="5147"><tspan fill="rgb(0,0,0)" stroke="none">88</tspan></tspan></tspan></text>
 <text class="TextShape"><tspan class="TextParagraph" font-family="Liberation Sans, sans-serif" font-size="353px" font-weight="400"><tspan class="TextPosition" x="1342" y="4474"><tspan fill="rgb(0,0,0)" stroke="none">90</tspan></tspan></tspan></text>
 <text class="TextShape"><tspan class="TextParagraph" font-family="Liberation Sans, sans-serif" font-size="353px" font-weight="400"><tspan class="TextPosition" x="1342" y="3801"><tspan fill="rgb(0,0,0)" stroke="none">92</tspan></tspan></tspan></text>
 <text class="TextShape"><tspan class="TextParagraph" font-family="Liberation Sans, sans-serif" font-size="353px" font-weight="400"><tspan class="TextPosition" x="1342" y="3128"><tspan fill="rgb(0,0,0)" stroke="none">94</tspan></tspan></tspan></text>
 <text class="TextShape"><tspan class="TextParagraph" font-family="Liberation Sans, sans-serif" font-size="353px" font-weight="400"><tspan class="TextPosition" x="1342" y="2455"><tspan fill="rgb(0,0,0)" stroke="none">96</tspan></tspan></tspan></text>
 <text class="TextShape"><tspan class="TextParagraph" font-family="Liberation Sans, sans-serif" font-size="459px" font-weight="400"><tspan class="TextPosition" x="5218" y="851"><tspan fill="rgb(0,0,0)" stroke="none">Temperatura del procesador</tspan></tspan></tspan></text>
 <text class="TextShape"><tspan class="TextParagraph" font-family="Liberation Sans, sans-serif" font-size="388px" font-weight="400"><tspan class="TextPosition" x="7242" y="1761"><tspan fill="rgb(0,0,0)" stroke="none">Inclinado</tspan></tspan></tspan></text>
 <path fill="none" stroke="rgb(0,0,0)" stroke-width="100" stroke-linejoin="round" d="M 10204,0 L 11004,4499"/>
 <text class="TextShape"><tspan class="TextParagraph" font-family="Liberation Sans, sans-serif" font-size="353px" font-weight="400"><tspan class="TextPosition" x="11104" y="4618"><tspan fill="rgb(0,0,0)" stroke="none">Promedio (Apagado/Apagado)</tspan></tspan></tspan></text>
 <text class="TextShape"><tspan class="TextParagraph" font-family="Liberation Sans, sans-serif" font-size="318px" font-weight="400"><tspan class="TextPosition" x="3808" y="8405"><tspan fill="rgb(0,0,0)" stroke="none">Tiempo (Intervalo de 5s)</tspan></tspan></tspan></text>
 <text class="TextShape" transform="translate(847,6231) rotate(-90) translate(-847,-6231)"><tspan class="TextParagraph" font-family="Liberation Sans, sans-serif" font-size="318px" font-weight="400"><tspan class="TextPosition" x="847" y="6231"><tspan fill="rgb(0,0,0)" stroke="none">Temperatura (ºC)</tspan></tspan></tspan></text>
</svg>